<svg id="expand-icon" xmlns="http://www.w3.org/2000/svg" width="9.967" height="9.967" viewBox="0 0 9.967 9.967">
  <g id="Group_11884" data-name="Group 11884">
    <g id="Group_11883" data-name="Group 11883">
      <path id="Path_37932" data-name="Path 37932" d="M281.9.374c0-.006,0-.012,0-.018s0-.015,0-.022,0-.014-.005-.021,0-.013,0-.019l-.007-.02L281.87.256l-.008-.018L281.853.22,281.843.2l-.011-.018-.013-.018-.011-.015c-.009-.01-.018-.021-.027-.03h0l-.03-.027-.015-.011L281.717.07,281.7.059l-.017-.01L281.663.04l-.018-.008-.019-.007-.02-.007-.019,0-.021-.005-.022,0-.018,0-.041,0H278.58a.415.415,0,1,0,0,.831h1.9l-3.029,3.029a.415.415,0,1,0,.587.587l3.029-3.029v1.9a.415.415,0,0,0,.831,0V.415C281.9.4,281.9.388,281.9.374Z" transform="translate(-271.935)" fill="#5d5d5d"/>
      <path id="Path_37933" data-name="Path 37933" d="M3.859,277.454.831,280.483v-1.9a.415.415,0,0,0-.831,0v2.907c0,.014,0,.027,0,.041s0,.012,0,.018,0,.015,0,.022,0,.014.005.021,0,.013,0,.019l.007.02.007.019.008.018.009.019.01.017.011.018.013.018.011.015q.013.016.027.03h0l.03.027.015.011.018.013.018.011.017.01.019.009.018.008.019.007.02.007.019,0,.021.005.022,0,.018,0,.041,0H3.322a.415.415,0,0,0,0-.831h-1.9l3.029-3.029a.415.415,0,1,0-.587-.587Z" transform="translate(0 -271.934)" fill="#5d5d5d"/>
    </g>
  </g>
</svg>
