<svg xmlns="http://www.w3.org/2000/svg" width="16.995" height="16.995" viewBox="0 0 16.995 16.995">
  <g id="filter-icon" transform="translate(-1750 -158)">
    <g id="Group_10131" data-name="Group 10131" transform="translate(1750 164.07)">
      <g id="Group_10130" data-name="Group 10130" transform="translate(0 0)">
        <path id="Path_37649" data-name="Path 37649" d="M16.388,172.488H6.59a2.416,2.416,0,0,0-4.683,0H.607a.607.607,0,1,0,0,1.214h1.3a2.416,2.416,0,0,0,4.683,0h9.8a.607.607,0,1,0,0-1.214Z" transform="translate(0 -170.667)" fill="#fff"/>
      </g>
    </g>
    <g id="Group_10133" data-name="Group 10133" transform="translate(1750 158)">
      <g id="Group_10132" data-name="Group 10132" transform="translate(0 0)">
        <path id="Path_37650" data-name="Path 37650" d="M16.388,1.821H14.481a2.416,2.416,0,0,0-4.683,0H.607a.607.607,0,1,0,0,1.214H9.8a2.416,2.416,0,0,0,4.683,0h1.907a.607.607,0,1,0,0-1.214Z" transform="translate(0 0)" fill="#fff"/>
      </g>
    </g>
    <path id="Path_37651" data-name="Path 37651" d="M16.388,343.155H13.267a2.416,2.416,0,0,0-4.683,0H.607a.607.607,0,1,0,0,1.214H8.584a2.416,2.416,0,0,0,4.683,0h3.121a.607.607,0,1,0,0-1.214Z" transform="translate(1750 -171.194)" fill="#fff"/>
  </g>
</svg>
